<svg width="1098" height="636" viewBox="0 0 1098 636" fill="none" xmlns="http://www.w3.org/2000/svg">
<mask id="mask0_1025_2918" style="mask-type:alpha" maskUnits="userSpaceOnUse" x="0" y="0" width="1098" height="636">
<rect width="1098" height="636" fill="#C4C4C4"/>
</mask>
<g mask="url(#mask0_1025_2918)">
<path d="M968.593 42.2695C962.942 40.6537 957.84 36.2184 953.433 29.0906C950.459 24.2796 948.228 18.9918 946.501 14.5922C946.728 15.5271 946.959 16.471 947.185 17.3929C949.256 25.8475 952.093 37.4261 952.952 47.942C954.011 60.9002 951.881 69.3487 946.441 73.7662C938.843 79.9375 927.333 75.9833 917.178 72.4937C909.27 69.7765 901.795 67.2097 898.706 70.2987C898.662 70.3427 898.619 70.386 898.578 70.4333C896.91 72.2602 896.75 75.6329 898.099 80.4562C899.37 85.0051 901.997 90.7738 905.903 97.5996C911.645 107.633 920.128 119.936 931.117 134.167C936.663 141.35 945.049 152.211 954.133 160.721C964.665 170.59 973.266 174.579 979.698 172.581C988.959 169.704 991.328 154.765 993.837 138.95C995.303 129.711 996.819 120.159 999.801 111.974C1003.28 102.423 1008.28 96.2726 1015.09 93.1717C1020.56 90.6777 1026.61 90.4257 1033.57 92.3986C1039.56 94.0939 1045.46 97.1786 1051.18 100.163C1061.56 105.581 1071.36 110.702 1079.27 106.144C1084.03 103.402 1087.66 97.5019 1089.76 89.0797C1091.69 81.3532 1092.23 71.838 1091.27 62.2891C1089.5 44.6119 1083.23 31.0679 1075.66 28.5908C1068.7 26.3104 1059.89 33.1185 1052.12 39.1205C1044.58 44.9472 1038.07 49.9788 1033.28 46.8081C1028.08 43.3675 1030.2 33.573 1032.44 23.2031C1033.41 18.7535 1034.32 14.5505 1034.57 11.136C1034.8 7.95221 1034.39 5.92768 1033.38 5.2822C1032.25 4.55875 1029.94 5.38585 1026.69 7.67673C1023.15 10.1797 1018.78 14.1986 1014.16 18.4505C1000.55 30.9766 983.614 46.562 968.593 42.2695V42.2695ZM942.13 3.34057C942.391 3.07935 942.689 2.92778 942.964 2.83811C944.932 2.19801 946.016 4.45224 946.479 5.41558C947.091 6.68254 947.787 8.50163 948.597 10.6114C952.213 20.0301 958.261 35.7902 969.534 39.0123C982.731 42.7858 998.89 27.9139 1011.87 15.9647C1022.47 6.2112 1030.13 -0.835034 1035.22 2.43043C1039.77 5.34971 1037.91 13.9523 1035.75 23.9082C1034.02 31.884 1031.87 41.8127 1035.15 43.9823C1037.93 45.8189 1044.09 41.0536 1050.06 36.4447C1058.5 29.9242 1068.06 22.535 1076.73 25.3737C1081.44 26.9186 1085.64 31.5159 1088.87 38.6759C1091.72 44.987 1093.77 53.2506 1094.64 61.9388C1095.64 71.8673 1095.07 81.7925 1093.04 89.889C1090.71 99.2263 1086.53 105.863 1080.95 109.079C1076.61 111.575 1071.58 111.96 1065.55 110.258C1060.39 108.801 1055.15 106.062 1049.6 103.167C1038.54 97.3882 1027.1 91.4146 1016.49 96.2513C1010.55 98.9553 1006.13 104.474 1002.98 113.121C1000.11 121 998.622 130.388 997.181 139.468C994.502 156.356 991.97 172.307 980.692 175.814C976.449 177.131 971.572 176.445 966.198 173.776C961.827 171.604 956.985 168.043 951.811 163.195C942.532 154.502 934.048 143.514 928.432 136.241C917.348 121.887 908.78 109.456 902.964 99.2911C893.811 83.2973 891.558 73.1123 896.078 68.1547C896.161 68.0651 896.247 67.9788 896.332 67.8938C900.903 63.3162 909.354 66.2214 918.29 69.2913C927.611 72.4934 938.177 76.1236 944.314 71.1417C948.755 67.5365 950.525 59.8263 949.577 48.2312C948.737 37.9809 945.94 26.5551 943.897 18.2119C942.962 14.3949 942.153 11.0964 941.722 8.70615C941.479 7.35032 941.368 6.36598 941.375 5.60917C941.381 4.45501 941.711 3.75972 942.13 3.34057" fill="#8C3BFC"/>
<path d="M151.998 628.395L151.997 628.395C138.194 620.57 133.252 607.6 127.958 593.705L127.952 593.69C122.683 579.86 117.081 565.198 101.588 555.463C86.1185 545.737 70.6286 547.344 56.3966 548.821C56.1564 548.846 55.9166 548.871 55.6771 548.896C41.1145 550.404 28.0404 551.539 16.5196 541.419C10.2786 535.937 6.38029 526.498 5.12996 516.28C3.88098 506.072 5.31335 495.382 9.41926 487.563C13.9195 478.997 20.6595 475.683 27.7146 472.213L28.0329 472.057C35.1524 468.554 42.5674 464.804 46.9142 454.846C50.6374 446.327 49.3397 439.61 47.7314 432.746C47.6392 432.353 47.5459 431.958 47.4525 431.563C45.9237 425.1 44.3232 418.334 45.9928 409.101C48.151 397.166 55.0773 385.043 64.9155 375.622C74.7453 366.209 87.3847 359.587 100.857 358.522C117.53 357.208 131.349 364.734 141.526 373.381C151.682 382.011 158.1 391.669 159.957 394.462L159.967 394.477C169.542 408.906 171.132 420.387 171.951 434.024C172.056 435.758 172.147 437.527 172.241 439.341C172.89 451.887 173.649 466.579 179.471 486.525L180.839 486.052L179.471 486.525C188.629 517.897 202.686 536.198 213.531 550.309C224.467 564.538 231.605 573.971 228.546 588.048L228.546 588.048C225.343 602.791 212.274 616.318 196.712 624.455C181.136 632.598 163.682 635.022 151.998 628.395Z" stroke="#13D4E0" stroke-width="3"/>
</g>
</svg>
